<svg xmlns="http://www.w3.org/2000/svg" xmlns:xlink="http://www.w3.org/1999/xlink" width="77" height="77" viewBox="0 0 77 77">
    <defs>
        <path id="a" d="M24.598 14c-.04.358-.065.715-.12 1.069-1.25 7.785-.205 14.94 5.872 20.67 1.658 1.566 3.294 3.174 5.085 4.581 4.867 3.825 9.086 8.11 10.953 14.508.469-1.7.611-3.306.612-4.866v-.025c0-1.06-.066-2.1-.139-3.131-.378-5.434-2.252-10.29-6.28-14.145-2.764-2.64-5.662-5.13-8.596-7.587-3.483-2.916-6.695-6.358-7.387-11.074zM24 37.975v.077c.003 1.331.144 2.643.418 3.922 1.452 6.749 5.49 11.67 11.106 15.478 4.188 2.842 8.405 5.657 10.558 10.548.109-.161.375-.855.462-1.73.623-7.54-2.29-13.592-8.198-18.147-5.561-4.292-10.903-8.686-13.558-15.635A20.083 20.083 0 0 0 24 37.975z"/>
    </defs>
    <g fill="none" fill-rule="evenodd">
        <path fill-rule="nonzero" d="M0 0h77v77H0z"/>
        <mask id="b" fill="#fff">
            <use xlink:href="#a"/>
        </mask>
        <path fill="#FFF" d="M24.598 14c-.04.358-.065.715-.12 1.069-1.25 7.785-.205 14.94 5.872 20.67 1.658 1.566 3.294 3.174 5.085 4.581 4.867 3.825 9.086 8.11 10.953 14.508.469-1.7.611-3.306.612-4.866v-.025c0-1.06-.066-2.1-.139-3.131-.378-5.434-2.252-10.29-6.28-14.145-2.764-2.64-5.662-5.13-8.596-7.587-3.483-2.916-6.695-6.358-7.387-11.074zM24 37.975v.077c.003 1.331.144 2.643.418 3.922 1.452 6.749 5.49 11.67 11.106 15.478 4.188 2.842 8.405 5.657 10.558 10.548.109-.161.375-.855.462-1.73.623-7.54-2.29-13.592-8.198-18.147-5.561-4.292-10.903-8.686-13.558-15.635A20.083 20.083 0 0 0 24 37.975z" mask="url(#b)"/>
    </g>
</svg>
