<svg xmlns="http://www.w3.org/2000/svg" xmlns:xlink="http://www.w3.org/1999/xlink" width="25" height="25" viewBox="0 0 25 25">
    <defs>
        <path id="a" d="M13.298 10.3H22a1.7 1.7 0 0 1 1.7 1.7v3a1.7 1.7 0 1 1-3.4 0v-.8h-.6v.8a1.7 1.7 0 1 1-3.4 0v-.8H14v-1.4h2.5a1.2 1.2 0 0 1 1.2 1.2v1a.3.3 0 0 0 .6 0v-1a1.2 1.2 0 0 1 1.2-1.2h1a1.2 1.2 0 0 1 1.2 1.2v1a.3.3 0 0 0 .6 0v-3a.3.3 0 0 0-.3-.3h-8.351a6.2 6.2 0 1 1-.35-1.4zm-5.798 7a4.8 4.8 0 1 0 0-9.6 4.8 4.8 0 0 0 0 9.6zm0-1.6a3.2 3.2 0 1 1 0-6.4 3.2 3.2 0 0 1 0 6.4zm0-1.4a1.8 1.8 0 1 0 0-3.6 1.8 1.8 0 0 0 0 3.6z"/>
    </defs>
    <g fill="none" fill-rule="evenodd">
        <mask id="b" fill="#fff">
            <use xlink:href="#a"/>
        </mask>
        <use fill="#AFAFB9" fill-rule="nonzero" transform="rotate(-45 12.5 12.5)" xlink:href="#a"/>
        <g fill="#AFAFB9" fill-rule="nonzero" mask="url(#b)">
            <path d="M0 0h25v25H0z"/>
        </g>
    </g>
</svg>
