<svg xmlns="http://www.w3.org/2000/svg" width="24" height="25" viewBox="0 0 24 25">
    <path fill="#00E68C" fill-rule="nonzero" d="M12 .5C5.345.5 0 5.845 0 12.5s5.345 12 12 12 12-5.345 12-12-5.345-12-12-12zm6.927 8.236L10.2 17.791a.495.495 0 0 1-.382.164c-.163 0-.327-.055-.382-.164l-4.254-4.582-.11-.109a.59.59 0 0 1-.163-.382.59.59 0 0 1 .164-.382l.763-.763a.527.527 0 0 1 .764 0l.055.054 3 3.218c.109.11.272.11.381 0l7.31-7.581h.054a.527.527 0 0 1 .764 0l.763.763c.218.164.218.491 0 .71z"/>
</svg>
