<svg xmlns="http://www.w3.org/2000/svg" width="30" height="30" viewBox="0 0 30 30">
    <path fill="#463291" fill-rule="nonzero" d="M14.856.33A14.19 14.19 0 0 0 2.92 6.824c-.284.435-.143 1.09.295 1.37.439.28 1.095.136 1.373-.303A12.189 12.189 0 0 1 14.856 2.3c3.04 0 5.805 1.096 7.94 2.924.383.384 1.096.359 1.45-.051.356-.41.275-1.117-.163-1.437A14.146 14.146 0 0 0 14.856.33zm0 3.744c-.523-.007-1.003.465-1.003.985s.48.993 1.003.985c4.666 0 8.424 3.755 8.424 8.403a.533.533 0 0 0 0 .102 27.057 27.057 0 0 1-.834 6.566c-.124.502.219 1.07.722 1.196.503.126 1.075-.213 1.204-.714.575-2.268.88-4.635.885-7.078v-.072-.093-.01c-.056-5.665-4.702-10.27-10.401-10.27zm-3.543.688a.99.99 0 0 0-.401.082c-3.762 1.534-6.421 5.212-6.468 9.49a.645.645 0 0 0 0 .113.533.533 0 0 0 0 .102A8.335 8.335 0 0 1 1.86 20.5c-.41.348-.444 1.048-.07 1.434.373.386 1.076.377 1.44-.018a10.311 10.311 0 0 0 3.193-7.397v-.071-.093c.038-3.48 2.2-6.443 5.241-7.684.432-.16.711-.65.628-1.1a1.02 1.02 0 0 0-.978-.808zM25.886 6.26a1.009 1.009 0 0 0-.88.521c-.168.315-.146.722.056 1.018a12.06 12.06 0 0 1 1.987 6.586v.062a.533.533 0 0 0 0 .102 30.919 30.919 0 0 1-.618 6.033c-.104.508.266 1.066.777 1.168.511.102 1.07-.27 1.17-.778.421-2.085.643-4.238.649-6.443v-.01-.072-.093-.01a14.036 14.036 0 0 0-2.307-7.623 1.008 1.008 0 0 0-.834-.461zm-11.03 1.57c-3.62 0-6.587 2.92-6.643 6.514a.533.533 0 0 0 0 .103.533.533 0 0 0 0 .102 12.074 12.074 0 0 1-.484 3.304c-.177.503.142 1.12.655 1.27.513.15 1.117-.198 1.24-.716.362-1.235.56-2.541.567-3.888v-.072-.093A4.647 4.647 0 0 1 14.856 9.8c1.651 0 3.083.853 3.913 2.134.283.437.94.578 1.377.295.438-.282.577-.937.292-1.372a6.646 6.646 0 0 0-5.582-3.027zM2.199 9.675c-.419.01-.813.316-.927.718a14.064 14.064 0 0 0-.587 3.991v.062a.533.533 0 0 0 0 .102 4.576 4.576 0 0 1-.546 2.073c-.29.456-.108 1.142.37 1.396.48.254 1.153.022 1.37-.473.486-.906.772-1.935.784-3.027v-.071-.093a12.09 12.09 0 0 1 .504-3.396c.19-.595-.34-1.298-.968-1.282zm12.657 1.908c-1.574 0-2.873 1.294-2.873 2.863-.007.52.466.998.988.998s.996-.478.989-.998a.88.88 0 0 1 .896-.893.88.88 0 0 1 .896.893.533.533 0 0 0 0 .102 19.532 19.532 0 0 1-1.256 6.802c-.179.483.098 1.084.583 1.264.484.18 1.088-.095 1.27-.576a21.485 21.485 0 0 0 1.38-7.52v-.072-.093-.02c-.061-1.517-1.337-2.75-2.873-2.75zm5.633 1.857c-.52.006-.989.487-.978 1.006 0 4.983-1.562 9.584-4.222 13.378-.3.424-.184 1.084.245 1.377.401.275 1.086.178 1.382-.249a25.173 25.173 0 0 0 4.572-14.506c.011-.526-.47-1.011-.999-1.006zm-7.785 2.698a1.019 1.019 0 0 0-.927.842 15.83 15.83 0 0 1-4.655 8.884c-.41.348-.444 1.048-.07 1.433.373.386 1.076.378 1.44-.017a17.8 17.8 0 0 0 5.241-9.982c.107-.584-.434-1.194-1.03-1.16zm-5.438 4.063c-.32.025-.623.215-.783.493a12.196 12.196 0 0 1-2.368 2.831c-.396.339-.443 1.009-.098 1.399.346.39 1.019.428 1.406.078a14.18 14.18 0 0 0 2.75-3.293c.193-.306.198-.72.012-1.031a1.012 1.012 0 0 0-.919-.477zm15.242 2.883a1.013 1.013 0 0 0-.865.657c-.34.93-.728 1.839-1.164 2.718-.255.465-.047 1.121.43 1.356.476.234 1.126 0 1.341-.484a28.87 28.87 0 0 0 1.246-2.913 1 1 0 0 0-.128-.936 1.009 1.009 0 0 0-.86-.398zm-8.764.944c-.32.024-.623.215-.783.492a19.705 19.705 0 0 1-2.152 2.924c-.35.386-.313 1.056.078 1.4.392.344 1.065.298 1.405-.097a21.74 21.74 0 0 0 2.368-3.221c.19-.308.19-.72.004-1.029a1.012 1.012 0 0 0-.919-.47h-.001z"/>
</svg>
